Force Plate Walk 8
version=1
nRows=26
nColumns=19
inDegrees=yes
endheader
time	ground_force1_vx	ground_force1_vy	ground_force1_vz	ground_force1_px	ground_force1_py	ground_force1_pz	ground_torque1_x	ground_torque1_y	ground_torque1_z	ground_force2_vx	ground_force2_vy	ground_force2_vz	ground_force2_px	ground_force2_py	ground_force2_pz	ground_torque2_x	ground_torque2_y	ground_torque2_z
5.062000	-97.448135	271.974762	3.875096	0.677854	0.000000	-0.245895	0.000006	-0.057874	0.000008	95.124496	512.322266	-24.580639	0.111383	0.000000	-0.078511	-0.000002	-1.315220	0.000003	
5.063000	-94.908920	263.440979	3.389678	0.676926	0.000000	-0.245878	0.000002	-0.192266	0.000011	96.360962	519.872437	-24.722841	0.111354	0.000000	-0.078552	0.000003	-1.338983	0.000002	
5.064000	-92.109161	254.099625	2.686087	0.675636	0.000000	-0.246098	0.000003	-0.159229	0.000003	97.626923	525.184387	-23.913033	0.110081	0.000000	-0.078301	-0.000001	-1.122035	0.000006	
5.065000	-89.926353	245.712662	2.246393	0.674809	0.000000	-0.246344	0.000003	-0.132634	0.000008	99.214561	530.577759	-24.516682	0.108713	0.000000	-0.078656	-0.000002	-1.075112	0.000000	
5.066000	-87.698479	237.071426	1.141371	0.674014	0.000000	-0.246415	0.000004	-0.206950	0.000012	101.537613	536.955994	-24.492514	0.107266	0.000000	-0.078933	0.000006	-0.948568	0.000002	
5.067000	-84.639168	229.329605	0.655124	0.673483	0.000000	-0.247003	0.000003	-0.168057	0.000004	104.359886	545.511719	-23.243738	0.105419	0.000000	-0.079406	0.000004	-0.365361	0.000004	
5.068000	-81.972450	221.610352	0.333512	0.672896	0.000000	-0.247397	0.000001	-0.220668	0.000008	108.490936	553.472534	-23.285549	0.103123	0.000000	-0.079666	0.000003	0.004416	-0.000002	
5.069000	-79.670082	216.089081	0.364437	0.672528	0.000000	-0.246525	0.000004	-0.174334	0.000009	112.426422	563.054504	-23.590683	0.101865	0.000000	-0.081245	0.000000	0.021135	-0.000005	
5.070000	-77.063843	207.667740	-0.224082	0.671701	0.000000	-0.246478	0.000001	-0.277884	0.000007	115.601036	571.403320	-21.806713	0.101213	0.000000	-0.082390	0.000004	0.707674	-0.000001	
5.071000	-74.309738	199.333832	-0.389310	0.671323	0.000000	-0.246500	0.000002	-0.356094	0.000003	118.754326	579.109070	-20.146461	0.100404	0.000000	-0.083987	-0.000002	1.295007	0.000006	
5.072000	-72.334221	190.657944	-0.920970	0.670228	0.000000	-0.247113	0.000003	-0.392248	0.000003	122.133209	582.568115	-20.140320	0.098754	0.000000	-0.083752	0.000005	1.549928	0.000001	
5.073000	-70.360901	185.874023	-1.089851	0.670025	0.000000	-0.246826	0.000002	-0.308979	0.000003	125.258369	585.719727	-21.353529	0.096871	0.000000	-0.083632	0.000002	1.543292	0.000003	
5.074000	-68.383675	178.164642	-1.408849	0.668999	0.000000	-0.246595	0.000002	-0.242709	0.000012	126.675079	585.378967	-20.840967	0.095131	0.000000	-0.082710	0.000006	1.907086	0.000004	
5.075000	-66.248985	171.172165	-1.621332	0.668113	0.000000	-0.247109	0.000002	-0.266675	-0.000001	126.844955	586.329163	-20.542835	0.094392	0.000000	-0.081741	0.000002	1.809336	0.000005	
5.076000	-63.538292	164.972351	-1.896889	0.667703	0.000000	-0.248109	0.000001	-0.236871	0.000004	126.827538	588.003479	-22.081362	0.093774	0.000000	-0.080956	-0.000001	1.402199	0.000006	
5.077000	-60.885136	158.758713	-1.522088	0.667500	0.000000	-0.246613	0.000001	-0.319178	0.000006	126.974586	593.128601	-24.677235	0.094514	0.000000	-0.081297	0.000004	1.049462	-0.000005	
5.078000	-58.620430	149.923523	-2.489936	0.665027	0.000000	-0.247051	0.000002	-0.311181	0.000003	126.450691	597.892578	-25.947630	0.095348	0.000000	-0.080950	0.000003	0.667008	0.000005	
5.079000	-55.948696	143.084763	-2.948208	0.664180	0.000000	-0.247375	0.000002	-0.308853	0.000005	126.004921	604.877625	-26.856564	0.096764	0.000000	-0.081137	0.000009	0.259655	0.000001	
5.080000	-53.380009	136.983810	-3.116365	0.664419	0.000000	-0.247069	0.000001	-0.270878	0.000006	124.691833	611.650452	-29.030918	0.097701	0.000000	-0.081728	0.000002	-0.254003	-0.000001	
5.081000	-50.956841	129.928925	-2.885560	0.661998	0.000000	-0.247621	0.000001	-0.292152	0.000008	124.135605	614.202271	-30.834044	0.097575	0.000000	-0.081462	0.000001	-0.741676	0.000007	
5.082000	-48.612595	124.503540	-3.869340	0.663074	0.000000	-0.247053	0.000002	-0.407795	0.000006	123.853249	614.662598	-31.134235	0.097131	0.000000	-0.080822	0.000011	-0.848065	0.000002	
5.083000	-46.503033	118.718849	-4.017162	0.663925	0.000000	-0.246902	0.000003	-0.448517	0.000010	123.529808	612.090332	-31.445690	0.095611	0.000000	-0.079521	0.000006	-0.757984	-0.000001	
5.084000	-44.438587	112.336082	-3.096675	0.663896	0.000000	-0.246175	0.000002	-0.267562	0.000006	123.396530	611.159180	-32.247093	0.093918	0.000000	-0.078505	0.000011	-0.957357	0.000007	
5.085000	-42.938095	105.361206	-3.379453	0.660608	0.000000	-0.247871	0.000001	-0.208917	0.000006	124.266441	612.667114	-31.981924	0.092843	0.000000	-0.078529	0.000002	-0.913324	0.000001	
5.086000	-40.789658	100.046310	-2.894057	0.659658	0.000000	-0.246086	0.000001	-0.286136	0.000003	125.160873	616.514160	-30.690788	0.092610	0.000000	-0.079362	-0.000001	-0.421306	-0.000000	
5.087000	-38.482838	93.764175	-3.110954	0.658522	0.000000	-0.247754	0.000002	-0.274645	0.000005	126.212051	623.476746	-29.810118	0.092626	0.000000	-0.080784	0.000007	-0.315179	0.000001	
